<svg width="30" height="30" viewBox="0 0 30 30" fill="none" xmlns="http://www.w3.org/2000/svg">
<path d="M0 7.5C0 6.11929 1.11929 5 2.5 5H27.5C28.8807 5 30 6.11929 30 7.5V22.5C30 23.8807 28.8807 25 27.5 25H2.5C1.11929 25 0 23.8807 0 22.5V7.5Z" fill="#1D71B9"/>
<path d="M22.1392 11.1692L21.5587 12.4488H22.7228L22.1392 11.1692ZM15.441 11.9622C15.5504 11.9102 15.6148 11.7973 15.6148 11.657C15.6148 11.5196 15.5471 11.42 15.4378 11.3732C15.3381 11.3214 15.1848 11.3154 15.0378 11.3154H13.9993V12.0284H15.0239C15.1879 12.0284 15.3251 12.0262 15.441 11.9622ZM2.13416 11.1692L1.56026 12.4488H2.71152L2.13416 11.1692ZM28.854 19.3669H27.2253V18.6784H28.8474C29.0082 18.6784 29.1208 18.6592 29.1886 18.5988C29.2528 18.545 29.289 18.469 29.2883 18.3895C29.2883 18.2959 29.2475 18.2217 29.1852 18.1772C29.1242 18.1282 29.035 18.1059 28.8881 18.1059C28.0962 18.0814 27.1083 18.1281 27.1083 17.1121C27.1083 16.6465 27.4334 16.1563 28.3184 16.1563H29.9983V15.5175H28.4375C27.9665 15.5175 27.6243 15.6202 27.382 15.7798V15.5175H25.0734C24.7043 15.5175 24.271 15.6008 24.066 15.7798V15.5175H19.9432V15.7798C19.6152 15.5644 19.0615 15.5175 18.8061 15.5175H16.0867V15.7798C15.8272 15.5511 15.2499 15.5175 14.8982 15.5175H11.8548L11.1584 16.2032L10.5062 15.5175H5.9599V19.9978H10.4204L11.1379 19.3012L11.8139 19.9978L14.5633 20V18.9461H14.8337C15.1985 18.9514 15.6287 18.9379 16.0084 18.7886V19.9977H18.2762V18.8299H18.3856C18.5252 18.8299 18.539 18.8352 18.539 18.9621V19.9974H25.4284C25.8658 19.9974 26.323 19.8957 26.5762 19.7106V19.9974H28.7615C29.2162 19.9974 29.6603 19.9394 29.9982 19.791V18.9564C29.7934 19.2289 29.3941 19.367 28.8539 19.367L28.854 19.3669ZM14.8698 18.309H13.8175V19.3859H12.1783L11.1398 18.3231L10.0606 19.3859H6.72003V16.1753H10.112L11.1496 17.2277L12.2223 16.1753H14.9171C15.5864 16.1753 16.3384 16.3439 16.3384 17.233C16.3384 18.1249 15.607 18.309 14.8698 18.309V18.309ZM19.9299 18.1634C20.0491 18.3201 20.0662 18.4664 20.0697 18.7494V19.3859H19.2229V18.9843C19.2229 18.7911 19.2434 18.5051 19.0866 18.3558C18.9635 18.2408 18.7756 18.2134 18.4678 18.2134H17.5666V19.3859H16.7192V16.1753H18.6662C19.0933 16.1753 19.4042 16.1926 19.681 16.3268C19.9471 16.4731 20.1146 16.6735 20.1146 17.0398C20.1146 17.5522 19.7389 17.8136 19.5169 17.8939C19.7045 17.9569 19.8579 18.0699 19.9299 18.1634V18.1634ZM23.4137 16.8393H21.4388V17.4229H23.3654V18.078H21.4388V18.7168L23.4137 18.7197V19.3859H20.5989V16.1753H23.4137V16.8393V16.8393ZM25.5808 19.3858H23.9383V18.6974H25.5742C25.7343 18.6974 25.8477 18.6781 25.9188 18.6178C25.9767 18.5682 26.0184 18.496 26.0184 18.4086C26.0184 18.3149 25.9733 18.2407 25.9155 18.1961C25.8509 18.1472 25.7619 18.125 25.6151 18.125C24.8264 18.1004 23.8387 18.1471 23.8387 17.1312C23.8387 16.6655 24.1604 16.1753 25.0445 16.1753H26.7353V16.8586H25.1882C25.0348 16.8586 24.9351 16.8639 24.8503 16.9167C24.7578 16.9687 24.7236 17.0458 24.7236 17.1476C24.7236 17.2687 24.8021 17.3511 24.9081 17.3867C24.9971 17.4149 25.0926 17.4231 25.2363 17.4231L25.6904 17.4344C26.148 17.4444 26.4624 17.5166 26.6535 17.6925C26.8175 17.8471 26.9057 18.0423 26.9057 18.3727C26.9057 19.0634 26.4313 19.3858 25.5808 19.3858V19.3858ZM19.0399 16.8911C18.938 16.836 18.7876 16.8331 18.6375 16.8331H17.599V17.5541H18.6236C18.7877 17.5541 18.9272 17.5488 19.0399 17.4879C19.1492 17.4278 19.2146 17.3171 19.2146 17.1798C19.2146 17.0425 19.1492 16.9431 19.0399 16.8911ZM28.4628 16.833C28.3094 16.833 28.2073 16.8383 28.1215 16.891C28.0325 16.9431 27.9983 17.0202 27.9983 17.122C27.9983 17.243 28.0735 17.3255 28.1827 17.3612C28.2718 17.3893 28.3672 17.3976 28.5077 17.3976L28.9649 17.4086C29.426 17.419 29.734 17.4912 29.9218 17.6672C29.956 17.6916 29.9765 17.719 30 17.7466V16.8331H28.4628L28.4628 16.833V16.833ZM14.899 16.833H13.7994V17.6507H14.8892C15.2133 17.6507 15.4148 17.5044 15.4149 17.2267C15.4148 16.9459 15.2035 16.833 14.899 16.833V16.833ZM7.56001 16.833V17.4167H9.41144V18.0718H7.56001V18.7106H9.63348L10.5968 17.7687L9.6744 16.833H7.56001ZM12.9744 19.0782V16.5042L11.6796 17.7705L12.9744 19.0782V19.0782ZM7.63078 13.9234V14.4766H14.6767L14.6734 13.3063H14.8098C14.9053 13.3093 14.9331 13.3173 14.9331 13.4607V14.4767H18.5773V14.2042C18.8712 14.3475 19.3283 14.4767 19.9299 14.4767H21.463L21.7912 13.7637H22.5186L22.8395 14.4767H25.7938V13.7994L26.2411 14.4766H28.6086V10H26.2657V10.5287L25.9376 10H23.5334V10.5287L23.2322 10H19.9846C19.441 10 18.9633 10.069 18.5773 10.2614V10H16.3361V10.2614C16.0905 10.0631 15.7558 10 15.3837 10H7.19623L6.64691 11.1563L6.08275 10H3.50396V10.5287L3.22061 10H1.02133L3.84624e-05 12.1285V13.8311L1.51023 10.6212H2.76329L4.19755 13.6603V10.6212H5.57408L6.67776 12.7987L7.69171 10.6212H9.09585V13.8311H8.23141L8.22826 11.3172L7.00531 13.8311H6.26483L5.03876 11.315V13.8311H3.32334L2.9993 13.1152H1.24333L0.915943 13.8311H0V14.4769H1.44103L1.76592 13.7639H2.4934L2.81745 14.4769H5.65262V13.9317L5.90567 14.4791H7.37747L7.63055 13.9235L7.63078 13.9234ZM18.7337 10.9954C19.0062 10.7392 19.4333 10.6211 20.0144 10.6211H20.8309V11.3088H20.0316C19.7239 11.3088 19.55 11.3505 19.3827 11.499C19.2388 11.6342 19.1402 11.8897 19.1402 12.2261C19.1402 12.57 19.2154 12.8179 19.372 12.9799C19.5019 13.1069 19.7379 13.1454 19.9599 13.1454H20.3388L21.5273 10.6212H22.7909L24.2188 13.6572V10.6212H25.5029L26.9854 12.8567V10.6212H27.8492V13.831H26.6541L25.0555 11.4218V13.831H23.338L23.0098 13.115H21.2578L20.9395 13.831H19.9525C19.5426 13.831 19.0236 13.7485 18.7297 13.4759C18.4332 13.2034 18.2792 12.8342 18.2792 12.2506C18.279 11.7745 18.3711 11.3393 18.7337 10.9954V10.9954ZM16.999 10.6211H17.8595V13.831H16.999V10.6211ZM13.1193 10.6211H15.0591C15.49 10.6211 15.8077 10.6315 16.0804 10.7748C16.3471 10.9182 16.5071 11.1276 16.5071 11.4855C16.5071 11.9973 16.1316 12.2617 15.9129 12.3411C16.0974 12.4051 16.2551 12.5179 16.3302 12.6114C16.4493 12.7711 16.4698 12.9137 16.4698 13.2004V13.8309H15.6192L15.616 13.4262C15.616 13.233 15.6363 12.9552 15.4829 12.8009C15.3597 12.688 15.1718 12.6634 14.8681 12.6634H13.9628V13.831H13.1194L13.1193 10.6211V10.6211ZM9.71952 10.6211H12.5369V11.2895H10.563V11.8681H12.4895V12.5261H10.563V13.1671H12.5369V13.8309H9.71952V10.6211V10.6211Z" fill="white"/>
</svg>
