<svg width="30" height="20" viewBox="0 0 30 20" fill="none" xmlns="http://www.w3.org/2000/svg">
<path d="M0 2.5C0 1.11929 1.11929 0 2.5 0H27.5C28.8807 0 30 1.11929 30 2.5V17.5C30 18.8807 28.8807 20 27.5 20H2.5C1.11929 20 0 18.8807 0 17.5V2.5Z" fill="#F2F2F2"/>
<path d="M23.2565 15.7054C24.4087 15.7054 24.9511 15.2657 25.4248 13.9331L27.5 8.11245H26.2985L24.9068 12.6157H24.8824L23.4908 8.11855H22.2552L24.2573 13.6586L24.15 13.9956C24.0743 14.4779 23.6413 14.822 23.1538 14.7865C23.0608 14.7865 22.8804 14.7768 22.8072 14.7671V15.682C22.9561 15.7023 23.1066 15.712 23.2565 15.7115V15.7054ZM19.2524 12.7905C18.6222 12.7905 18.2222 12.4855 18.2222 12.024C18.2222 11.5458 18.6079 11.2672 19.3454 11.223L20.6588 11.1402V11.5702C20.6298 12.2787 20.0316 12.8301 19.3231 12.8012C19.2992 12.8002 19.2758 12.7981 19.2524 12.7961V12.7905ZM18.9353 13.6937C19.6504 13.713 20.3193 13.3404 20.6786 12.7219H20.703V13.6368H21.7968V9.84766C21.7968 8.7488 20.918 8.04079 19.565 8.04079C18.3101 8.04079 17.382 8.75846 17.348 9.74499H18.4128C18.5398 9.24334 19.0166 8.91246 19.5309 8.96837C20.2537 8.96837 20.6588 9.30535 20.6588 9.92543V10.3453L19.1848 10.4332C17.8125 10.516 17.0704 11.0777 17.0704 12.0545C17.0694 13.0451 17.8359 13.6993 18.9348 13.6993L18.9353 13.6937ZM12.5967 7.01867H13.9589C14.9845 7.01867 15.5706 7.56556 15.5706 8.5277C15.5706 9.48985 14.9845 10.0413 13.9543 10.0413H12.5967V7.01867ZM11.415 6.02248V13.6352H12.5967V11.04H14.2328C15.5655 11.1117 16.7035 10.0896 16.7751 8.75693C16.7792 8.6812 16.7797 8.60598 16.7767 8.53025C16.8397 7.21232 15.8227 6.09313 14.5047 6.02959C14.427 6.02603 14.3497 6.02654 14.2719 6.0301L11.415 6.02248ZM7.49274 7.44307C6.8137 7.40394 6.23275 7.82884 5.91051 7.82884C5.58827 7.82884 5.09018 7.46289 4.55294 7.47306C3.84137 7.49136 3.19283 7.88526 2.84874 8.50839C2.11633 9.76837 2.65814 11.6337 3.36615 12.6589C3.71278 13.1671 4.12854 13.7237 4.67493 13.7039C5.19234 13.6845 5.39767 13.3669 6.02284 13.3669C6.648 13.3669 6.83352 13.7039 7.38041 13.6937C7.94661 13.684 8.30342 13.1854 8.65107 12.6772C8.89605 12.3173 9.08665 11.9234 9.21727 11.5082C8.54992 11.2164 8.11739 10.5592 8.11383 9.83089C8.124 9.18845 8.46047 8.59581 9.00736 8.25883C8.65869 7.76379 8.09909 7.45984 7.49375 7.4385L7.49274 7.44307ZM7.06884 6.77064C6.77151 7.14523 6.31661 7.36022 5.83834 7.35158C5.80784 6.885 5.96642 6.42604 6.27799 6.07737C6.58803 5.71752 7.02513 5.49185 7.49782 5.44763C7.53136 5.92743 7.37736 6.40113 7.06783 6.76912" fill="black"/>
</svg>
