<svg width="30" height="30" viewBox="0 0 30 30" fill="none" xmlns="http://www.w3.org/2000/svg">
<path d="M0 7.5C0 6.11929 1.11929 5 2.5 5H27.5C28.8807 5 30 6.11929 30 7.5V22.5C30 23.8807 28.8807 25 27.5 25H2.5C1.11929 25 0 23.8807 0 22.5V7.5Z" fill="#F2F2F2"/>
<path d="M23.2565 20.7054C24.4087 20.7054 24.9511 20.2657 25.4248 18.9331L27.5 13.1125H26.2985L24.9068 17.6157H24.8824L23.4908 13.1186H22.2552L24.2573 18.6586L24.15 18.9956C24.0743 19.4779 23.6413 19.822 23.1538 19.7865C23.0608 19.7865 22.8804 19.7768 22.8072 19.7671V20.682C22.9561 20.7023 23.1066 20.712 23.2565 20.7115V20.7054ZM19.2524 17.7905C18.6222 17.7905 18.2222 17.4855 18.2222 17.024C18.2222 16.5458 18.6079 16.2672 19.3454 16.223L20.6588 16.1402V16.5702C20.6298 17.2787 20.0316 17.8301 19.3231 17.8012C19.2992 17.8002 19.2758 17.7981 19.2524 17.7961V17.7905ZM18.9353 18.6937C19.6504 18.713 20.3193 18.3404 20.6786 17.7219H20.703V18.6368H21.7968V14.8477C21.7968 13.7488 20.918 13.0408 19.565 13.0408C18.3101 13.0408 17.382 13.7585 17.348 14.745H18.4128C18.5398 14.2433 19.0166 13.9125 19.5309 13.9684C20.2537 13.9684 20.6588 14.3053 20.6588 14.9254V15.3453L19.1848 15.4332C17.8125 15.516 17.0704 16.0777 17.0704 17.0545C17.0694 18.0451 17.8359 18.6993 18.9348 18.6993L18.9353 18.6937ZM12.5967 12.0187H13.9589C14.9845 12.0187 15.5706 12.5656 15.5706 13.5277C15.5706 14.4898 14.9845 15.0413 13.9543 15.0413H12.5967V12.0187ZM11.415 11.0225V18.6352H12.5967V16.04H14.2328C15.5655 16.1117 16.7035 15.0896 16.7751 13.7569C16.7792 13.6812 16.7797 13.606 16.7767 13.5302C16.8397 12.2123 15.8227 11.0931 14.5047 11.0296C14.427 11.026 14.3497 11.0265 14.2719 11.0301L11.415 11.0225ZM7.49274 12.4431C6.8137 12.4039 6.23275 12.8288 5.91051 12.8288C5.58827 12.8288 5.09018 12.4629 4.55294 12.4731C3.84137 12.4914 3.19283 12.8853 2.84874 13.5084C2.11633 14.7684 2.65814 16.6337 3.36615 17.6589C3.71278 18.1671 4.12854 18.7237 4.67493 18.7039C5.19234 18.6845 5.39767 18.3669 6.02284 18.3669C6.648 18.3669 6.83352 18.7039 7.38041 18.6937C7.94661 18.684 8.30342 18.1854 8.65107 17.6772C8.89605 17.3173 9.08665 16.9234 9.21727 16.5082C8.54992 16.2164 8.11739 15.5592 8.11383 14.8309C8.124 14.1884 8.46047 13.5958 9.00736 13.2588C8.65869 12.7638 8.09909 12.4598 7.49375 12.4385L7.49274 12.4431ZM7.06884 11.7706C6.77151 12.1452 6.31661 12.3602 5.83834 12.3516C5.80784 11.885 5.96642 11.426 6.27799 11.0774C6.58803 10.7175 7.02513 10.4919 7.49782 10.4476C7.53136 10.9274 7.37736 11.4011 7.06783 11.7691" fill="black"/>
</svg>
