<svg width="30" height="20" viewBox="0 0 30 20" fill="none" xmlns="http://www.w3.org/2000/svg">
<path d="M0 2.5C0 1.11929 1.11929 0 2.5 0H27.5C28.8807 0 30 1.11929 30 2.5V17.5C30 18.8807 28.8807 20 27.5 20H2.5C1.11929 20 0 18.8807 0 17.5V2.5Z" fill="#FFEFE5"/>
<path d="M17.8627 9.9889C17.865 9.45157 17.6635 8.91347 17.2581 8.50797C16.8517 8.10163 16.3123 7.90033 15.7738 7.90356C15.7713 7.90356 15.7688 7.9034 15.7661 7.9034C14.5969 7.9034 13.6694 8.83061 13.6694 10.0002C13.6694 11.1582 14.6083 12.0968 15.7661 12.0968C16.9356 12.0968 17.863 11.1694 17.863 10.0002C17.863 9.99631 17.8627 9.99269 17.8627 9.9889Z" fill="#F26E21"/>
<path d="M13.2793 10.8871C12.966 11.2008 12.6767 11.3234 12.3652 11.33C11.6062 11.3232 11.0482 10.7611 11.0482 9.95977C11.0482 9.55639 11.2009 9.22577 11.4429 8.94334C11.6698 8.72793 11.9621 8.58875 12.2982 8.58875C12.6611 8.58875 12.9434 8.7097 13.2658 9.03228V8.1049C12.9435 7.94369 12.661 7.86301 12.2982 7.86301C11.7856 7.89964 11.3024 8.10674 10.9317 8.43195C10.8248 8.52808 10.7224 8.63419 10.6356 8.75564C10.3648 9.10661 10.2012 9.53637 10.2012 10.0003C10.2012 11.1694 11.1289 12.0565 12.2982 12.0565C12.3038 12.0565 12.3095 12.056 12.315 12.0559C12.3229 12.056 12.3306 12.0565 12.3384 12.0565C12.6609 12.0565 12.9434 11.976 13.3063 11.8147L13.2793 10.8871C13.2657 10.9007 13.2928 10.9134 13.2793 10.9262V10.8871Z" fill="#2B2B2B"/>
<path d="M20.5099 8.44039L19.5967 10.6855L18.5483 8.02402H17.7017L19.3548 12.0966H19.7983L21.5322 8.02402H20.6855L20.5099 8.44039Z" fill="#2B2B2B"/>
<path d="M21.855 9.79828V11.9758H24.0325H24.0726V11.3304H23.3872H22.6614V10.6048V10.242H24.0325V9.55632H22.6614V8.70963H24.0726V8.02404H21.855V9.79828Z" fill="#2B2B2B"/>
<path d="M3.62924 8.02408H2.5V11.9759H3.62918C4.23392 11.9759 4.6774 11.8144 5.04029 11.5322C5.48377 11.1693 5.76615 10.6049 5.76615 10.0002C5.7662 8.83051 4.91929 8.02408 3.62924 8.02408ZM4.55656 11.0081C4.31461 11.2096 3.99202 11.3305 3.50812 11.3305H3.26617V8.70962H3.46775C3.95165 8.70962 4.27424 8.79025 4.51624 9.03209C4.79845 9.27387 4.95983 9.63699 4.95983 10C5.00015 10.3629 4.83888 10.766 4.55656 11.0081Z" fill="#2B2B2B"/>
<path d="M6.89502 8.02377H6.12891V11.9755H6.89502V8.02377Z" fill="#2B2B2B"/>
<path d="M8.8308 9.5564C8.34701 9.39514 8.22589 9.27408 8.22589 9.07255C8.22589 8.8306 8.46785 8.62902 8.79043 8.62902C9.03238 8.62902 9.23396 8.70971 9.4356 8.95166L9.83892 8.4275C9.51623 8.14512 9.11318 7.98402 8.66959 7.98402C7.98394 7.98402 7.41941 8.46793 7.41941 9.11287C7.41941 9.67752 7.66158 9.91941 8.38727 10.2017C8.70985 10.3225 8.83086 10.3629 8.91166 10.4436C9.07264 10.5241 9.15344 10.6855 9.15344 10.8466C9.15344 11.1693 8.91166 11.4113 8.54853 11.4113C8.1853 11.4113 7.863 11.2097 7.70168 10.887L7.21777 11.371C7.58084 11.8951 8.02437 12.137 8.5889 12.137C9.39528 12.137 9.95953 11.6128 9.95953 10.8466C9.95965 10.1613 9.71792 9.87904 8.8308 9.5564Z" fill="#2B2B2B"/>
<path d="M26.25 10.3225C26.8547 10.2017 27.1773 9.79832 27.1773 9.19364C27.1773 8.46795 26.6531 8.02414 25.7661 8.02414H24.5967V11.9759H25.3628V10.4032H25.4839L26.5723 11.9759H27.4999L26.25 10.3225ZM25.6046 9.83858H25.3629V8.62905H25.6046C26.0885 8.62905 26.3709 8.83057 26.3709 9.23406C26.3709 9.63711 26.0886 9.83858 25.6046 9.83858Z" fill="#2B2B2B"/>
</svg>
