<svg width="30" height="30" viewBox="0 0 30 30" fill="none" xmlns="http://www.w3.org/2000/svg">
<path d="M0 7.5C0 6.11929 1.11929 5 2.5 5H27.5C28.8807 5 30 6.11929 30 7.5V22.5C30 23.8807 28.8807 25 27.5 25H2.5C1.11929 25 0 23.8807 0 22.5V7.5Z" fill="#FFEFE5"/>
<path d="M17.8627 14.9889C17.865 14.4516 17.6635 13.9135 17.2581 13.508C16.8517 13.1017 16.3123 12.9004 15.7738 12.9036C15.7713 12.9036 15.7688 12.9034 15.7661 12.9034C14.5969 12.9034 13.6694 13.8307 13.6694 15.0002C13.6694 16.1582 14.6083 17.0968 15.7661 17.0968C16.9356 17.0968 17.863 16.1694 17.863 15.0002C17.863 14.9964 17.8627 14.9927 17.8627 14.9889Z" fill="#F26E21"/>
<path d="M13.2793 15.8871C12.966 16.2008 12.6767 16.3234 12.3652 16.33C11.6062 16.3232 11.0482 15.7612 11.0482 14.9598C11.0482 14.5564 11.2009 14.2258 11.4429 13.9434C11.6698 13.728 11.9621 13.5888 12.2982 13.5888C12.6611 13.5888 12.9434 13.7097 13.2658 14.0323V13.1049C12.9435 12.9437 12.661 12.863 12.2982 12.863C11.7856 12.8997 11.3024 13.1068 10.9317 13.432C10.8248 13.5281 10.7224 13.6342 10.6356 13.7557C10.3648 14.1066 10.2012 14.5364 10.2012 15.0003C10.2012 16.1694 11.1289 17.0565 12.2982 17.0565C12.3038 17.0565 12.3095 17.056 12.315 17.0559C12.3229 17.0561 12.3306 17.0565 12.3384 17.0565C12.6609 17.0565 12.9434 16.976 13.3063 16.8147L13.2793 15.8871C13.2657 15.9007 13.2928 15.9134 13.2793 15.9263V15.8871Z" fill="#2B2B2B"/>
<path d="M20.5099 13.4404L19.5967 15.6855L18.5483 13.024H17.7017L19.3548 17.0966H19.7983L21.5322 13.024H20.6855L20.5099 13.4404Z" fill="#2B2B2B"/>
<path d="M21.855 14.7983V16.9758H24.0325H24.0726V16.3305H23.3872H22.6614V15.6048V15.242H24.0325V14.5563H22.6614V13.7096H24.0726V13.024H21.855V14.7983Z" fill="#2B2B2B"/>
<path d="M3.62924 13.0242H2.5V16.976H3.62918C4.23392 16.976 4.6774 16.8145 5.04029 16.5323C5.48377 16.1694 5.76615 15.605 5.76615 15.0003C5.7662 13.8306 4.91929 13.0242 3.62924 13.0242ZM4.55656 16.0082C4.31461 16.2097 3.99202 16.3306 3.50812 16.3306H3.26617V13.7097H3.46775C3.95165 13.7097 4.27424 13.7903 4.51624 14.0322C4.79845 14.274 4.95983 14.6371 4.95983 15.0001C5.00015 15.363 4.83888 15.766 4.55656 16.0082Z" fill="#2B2B2B"/>
<path d="M6.89502 13.0238H6.12891V16.9755H6.89502V13.0238Z" fill="#2B2B2B"/>
<path d="M8.8308 14.5564C8.34701 14.3951 8.22589 14.2741 8.22589 14.0725C8.22589 13.8306 8.46785 13.629 8.79043 13.629C9.03238 13.629 9.23396 13.7097 9.4356 13.9516L9.83892 13.4275C9.51623 13.1451 9.11318 12.984 8.66959 12.984C7.98394 12.984 7.41941 13.4679 7.41941 14.1129C7.41941 14.6775 7.66158 14.9194 8.38727 15.2017C8.70985 15.3224 8.83086 15.3629 8.91166 15.4436C9.07264 15.5241 9.15344 15.6855 9.15344 15.8466C9.15344 16.1692 8.91166 16.4113 8.54853 16.4113C8.1853 16.4113 7.863 16.2097 7.70168 15.887L7.21777 16.3709C7.58084 16.8951 8.02437 17.137 8.5889 17.137C9.39528 17.137 9.95953 16.6128 9.95953 15.8466C9.95965 15.1613 9.71792 14.879 8.8308 14.5564Z" fill="#2B2B2B"/>
<path d="M26.25 15.3225C26.8547 15.2017 27.1773 14.7983 27.1773 14.1937C27.1773 13.468 26.6531 13.0242 25.7661 13.0242H24.5967V16.976H25.3628V15.4032H25.4839L26.5723 16.976H27.4999L26.25 15.3225ZM25.6046 14.8386H25.3629V13.6291H25.6046C26.0885 13.6291 26.3709 13.8306 26.3709 14.2341C26.3709 14.6371 26.0886 14.8386 25.6046 14.8386Z" fill="#2B2B2B"/>
</svg>
