<svg width="30" height="30" viewBox="0 0 30 30" fill="none" xmlns="http://www.w3.org/2000/svg">
<path d="M0 7.5C0 6.11929 1.11929 5 2.5 5H27.5C28.8807 5 30 6.11929 30 7.5V22.5C30 23.8807 28.8807 25 27.5 25H2.5C1.11929 25 0 23.8807 0 22.5V7.5Z" fill="#F2F2F2"/>
<path d="M14.3231 15.672V18.5618H13.3999V11.4252H15.8483C16.1406 11.4191 16.4311 11.4706 16.7033 11.5766C16.9754 11.6827 17.2237 11.8412 17.4338 12.043C17.646 12.2326 17.8149 12.4651 17.9291 12.7248C18.0434 12.9846 18.1003 13.2657 18.096 13.5491C18.1021 13.8341 18.0461 14.117 17.9318 14.3784C17.8175 14.6399 17.6476 14.8737 17.4338 15.0638C17.0056 15.4693 16.4771 15.6718 15.8483 15.6714H14.3231V15.672ZM14.3231 12.3038V14.7951H15.8713C16.041 14.8 16.2099 14.7698 16.3672 14.7063C16.5245 14.6427 16.6667 14.5473 16.7847 14.4261C16.9021 14.3127 16.9954 14.1771 17.0591 14.0273C17.1229 13.8775 17.1557 13.7166 17.1557 13.554C17.1557 13.3914 17.1229 13.2304 17.0591 13.0806C16.9954 12.9308 16.9021 12.7952 16.7847 12.6819C16.6681 12.5581 16.5264 12.4603 16.369 12.395C16.2115 12.3298 16.0418 12.2985 15.8713 12.3032H14.3231V12.3038Z" fill="#5F6368"/>
<path d="M20.2233 13.5195C20.9057 13.5195 21.4443 13.7006 21.8392 14.0628C22.234 14.4249 22.4313 14.9215 22.4309 15.5524V18.5618H21.5479V17.8842H21.5077C21.1255 18.4423 20.617 18.7213 19.9825 18.7213C19.4408 18.7213 18.9876 18.5618 18.623 18.243C18.4479 18.0966 18.308 17.9133 18.2134 17.7064C18.1188 17.4996 18.0718 17.2743 18.0759 17.0472C18.0759 16.5419 18.2682 16.14 18.6528 15.8417C19.0373 15.5433 19.5507 15.3937 20.1929 15.393C20.7411 15.393 21.1925 15.4926 21.5473 15.6919V15.4824C21.5483 15.3275 21.5147 15.1743 21.4487 15.034C21.3828 14.8936 21.2862 14.7696 21.166 14.6709C20.9219 14.4522 20.6037 14.3328 20.2749 14.3367C19.7592 14.3367 19.3512 14.5527 19.0507 14.9847L18.2376 14.4762C18.6849 13.8384 19.3468 13.5195 20.2233 13.5195ZM19.0289 17.0671C19.0283 17.1838 19.0558 17.2989 19.109 17.4029C19.1623 17.5069 19.2398 17.5968 19.3351 17.665C19.5393 17.8245 19.7927 17.909 20.0524 17.9041C20.442 17.9035 20.8154 17.7495 21.0909 17.4759C21.3967 17.1901 21.5496 16.8547 21.5496 16.4697C21.2617 16.242 20.8604 16.1281 20.3454 16.1281C19.9704 16.1281 19.6578 16.2179 19.4074 16.3974C19.1545 16.5797 19.0289 16.8012 19.0289 17.0671Z" fill="#5F6368"/>
<path d="M27.5002 13.679L24.4176 20.7143H23.4646L24.6085 18.2526L22.5815 13.679H23.585L25.05 17.1866H25.0701L26.495 13.679H27.5002Z" fill="#5F6368"/>
<path d="M10.5929 15.049C10.5932 14.7696 10.5695 14.4907 10.5218 14.2153H6.62842V15.7944H8.85836C8.81273 16.0466 8.71615 16.287 8.57444 16.5011C8.43273 16.7152 8.24883 16.8986 8.03382 17.0403V18.0653H9.36467C10.1439 17.3518 10.5929 16.2966 10.5929 15.049Z" fill="#4285F4"/>
<path d="M6.62813 19.0556C7.74224 19.0556 8.68032 18.6923 9.36438 18.0659L8.03353 17.0409C7.66311 17.2903 7.18604 17.4327 6.62813 17.4327C5.55128 17.4327 4.63729 16.7118 4.31045 15.7404H2.93945V16.7966C3.28307 17.4757 3.80997 18.0465 4.46133 18.4454C5.11269 18.8443 5.86288 19.0555 6.62813 19.0556Z" fill="#34A853"/>
<path d="M4.31061 15.7404C4.13782 15.2313 4.13782 14.6801 4.31061 14.171V13.1147H2.93961C2.65054 13.686 2.5 14.3164 2.5 14.9557C2.5 15.595 2.65054 16.2255 2.93961 16.7967L4.31061 15.7404Z" fill="#FBBC04"/>
<path d="M6.62813 12.4786C7.21688 12.4691 7.78578 12.69 8.21185 13.0936L9.39019 11.9234C8.643 11.2265 7.65314 10.8438 6.62813 10.8557C5.86288 10.8558 5.11269 11.067 4.46133 11.4659C3.80997 11.8648 3.28307 12.4356 2.93945 13.1147L4.31045 14.171C4.63729 13.1995 5.55128 12.4786 6.62813 12.4786Z" fill="#EA4335"/>
</svg>
