<svg width="32" height="22" viewBox="0 0 32 22" fill="none" xmlns="http://www.w3.org/2000/svg">
<path d="M0 3C0 1.52724 1.19391 0.333336 2.66667 0.333336H29.3333C30.8061 0.333336 32 1.52724 32 3V19C32 20.4728 30.8061 21.6667 29.3333 21.6667H2.66667C1.19391 21.6667 0 20.4728 0 19V3Z" fill="#F2F2F2"/>
<path d="M15.2779 11.7167V14.7992H14.2932V7.18678H16.9049C17.2166 7.18031 17.5265 7.23522 17.8168 7.34833C18.1071 7.46144 18.3719 7.63051 18.596 7.8458C18.8224 8.04801 19.0025 8.296 19.1244 8.57311C19.2462 8.85021 19.3069 9.15001 19.3024 9.45235C19.3089 9.75631 19.2491 10.0581 19.1272 10.3369C19.0053 10.6158 18.8241 10.8652 18.596 11.068C18.1393 11.5005 17.5756 11.7165 16.9049 11.7161H15.2779V11.7167ZM15.2779 8.12398V10.7813H16.9293C17.1104 10.7867 17.2905 10.7544 17.4583 10.6866C17.6261 10.6189 17.7778 10.5171 17.9036 10.3877C18.0289 10.2668 18.1284 10.1222 18.1964 9.96243C18.2644 9.80265 18.2994 9.63096 18.2994 9.45751C18.2994 9.28406 18.2644 9.11237 18.1964 8.95259C18.1284 8.79282 18.0289 8.6482 17.9036 8.52729C17.7793 8.39525 17.6282 8.29095 17.4602 8.22132C17.2922 8.15168 17.1113 8.1183 16.9293 8.12337H15.2779V8.12398Z" fill="#5F6368"/>
<path d="M21.5718 9.42079C22.2996 9.42079 22.8742 9.61394 23.2954 10.0002C23.7166 10.3865 23.927 10.9162 23.9266 11.5892V14.7993H22.9847V14.0765H22.9419C22.5341 14.6717 21.9918 14.9693 21.3149 14.9693C20.7371 14.9693 20.2538 14.7993 19.8648 14.4591C19.6781 14.303 19.5288 14.1075 19.4279 13.8868C19.327 13.6662 19.2769 13.4259 19.2813 13.1836C19.2813 12.6446 19.4864 12.216 19.8966 11.8977C20.3068 11.5795 20.8544 11.4199 21.5394 11.4191C22.1241 11.4191 22.6057 11.5254 22.9841 11.738V11.5145C22.9852 11.3493 22.9492 11.1859 22.8789 11.0362C22.8086 10.8865 22.7055 10.7542 22.5773 10.6489C22.3169 10.4156 21.9776 10.2883 21.6269 10.2924C21.0768 10.2924 20.6415 10.5228 20.321 10.9836L19.4538 10.4412C19.9308 9.76093 20.6368 9.42079 21.5718 9.42079ZM20.2978 13.2048C20.2971 13.3293 20.3264 13.4521 20.3832 13.563C20.4401 13.674 20.5227 13.7698 20.6244 13.8426C20.8422 14.0127 21.1125 14.1029 21.3895 14.0977C21.8051 14.097 22.2034 13.9328 22.4972 13.641C22.8234 13.336 22.9865 12.9783 22.9865 12.5677C22.6795 12.3247 22.2513 12.2033 21.7021 12.2033C21.3021 12.2033 20.9685 12.299 20.7015 12.4906C20.4317 12.6849 20.2978 12.9212 20.2978 13.2048Z" fill="#5F6368"/>
<path d="M29.3337 9.59082L26.0456 17.0951H25.0291L26.2493 14.4694L24.0872 9.59082H25.1575L26.7202 13.3324H26.7416L28.2615 9.59082H29.3337Z" fill="#5F6368"/>
<path d="M11.2991 11.0522C11.2995 10.7542 11.2741 10.4567 11.2232 10.163H7.07031V11.8473H9.44892C9.40025 12.1163 9.29723 12.3727 9.14607 12.6011C8.99491 12.8295 8.79875 13.0252 8.5694 13.1763V14.2696H9.98898C10.8202 13.5085 11.2991 12.383 11.2991 11.0522Z" fill="#4285F4"/>
<path d="M7.07008 15.3258C8.25847 15.3258 9.25909 14.9383 9.98876 14.2702L8.56918 13.1769C8.17407 13.4429 7.66519 13.5948 7.07008 13.5948C5.92145 13.5948 4.94652 12.8258 4.59789 11.7896H3.1355V12.9163C3.50202 13.6406 4.06405 14.2495 4.75884 14.675C5.45362 15.1005 6.25381 15.3258 7.07008 15.3258Z" fill="#34A853"/>
<path d="M4.59806 11.7896C4.41375 11.2466 4.41375 10.6586 4.59806 10.1157V8.98894H3.13566C2.82733 9.59825 2.66675 10.2707 2.66675 10.9526C2.66675 11.6346 2.82733 12.307 3.13566 12.9163L4.59806 11.7896Z" fill="#FBBC04"/>
<path d="M7.07008 8.31046C7.69809 8.30027 8.30492 8.53591 8.75939 8.96644L10.0163 7.71825C9.21928 6.97485 8.16344 6.56671 7.07008 6.57939C6.25382 6.57943 5.45362 6.80476 4.75884 7.23025C4.06405 7.65573 3.50202 8.26461 3.1355 8.98891L4.59789 10.1156C4.94652 9.07942 5.92145 8.31046 7.07008 8.31046Z" fill="#EA4335"/>
</svg>
