<svg width="30" height="30" viewBox="0 0 30 30" fill="none" xmlns="http://www.w3.org/2000/svg">
<path d="M0 7.5C0 6.11929 1.11929 5 2.5 5H27.5C28.8807 5 30 6.11929 30 7.5V22.5C30 23.8807 28.8807 25 27.5 25H2.5C1.11929 25 0 23.8807 0 22.5V7.5Z" fill="black"/>
<path d="M18.1295 9.07949L11.6738 9.10168L11.8694 20.9203L18.3251 20.8981L18.1295 9.07949Z" fill="#FF5F00"/>
<path d="M12.0985 15.035C12.0586 12.6312 13.1354 10.4953 14.8221 9.10984C13.549 8.11081 11.9529 7.51006 10.2227 7.51599C6.12381 7.53002 2.86354 10.9067 2.93267 15.0664C3.00179 19.226 6.37391 22.58 10.4728 22.566C12.203 22.56 13.7789 21.9484 15.0187 20.9408C13.2865 19.588 12.1385 17.4388 12.0985 15.035Z" fill="#EB001B"/>
<path d="M27.0664 14.9336C27.1355 19.0933 23.8752 22.47 19.7764 22.484C18.0462 22.49 16.4501 21.8892 15.177 20.8902C16.8842 19.5047 17.9405 17.3689 17.9005 14.965C17.8606 12.5612 16.7129 10.4329 14.9804 9.05922C16.2201 8.05159 17.7961 7.43997 19.5262 7.43405C23.6251 7.42001 26.9976 10.7949 27.0664 14.9336Z" fill="#F79E1B"/>
</svg>
