<svg width="30" height="20" viewBox="0 0 30 20" fill="none" xmlns="http://www.w3.org/2000/svg">
<path d="M0 2.5C0 1.11929 1.11929 0 2.5 0H27.5C28.8807 0 30 1.11929 30 2.5V17.5C30 18.8807 28.8807 20 27.5 20H2.5C1.11929 20 0 18.8807 0 17.5V2.5Z" fill="black"/>
<path d="M18.1295 4.07949L11.6738 4.10168L11.8694 15.9203L18.3251 15.8981L18.1295 4.07949Z" fill="#FF5F00"/>
<path d="M12.0985 10.035C12.0586 7.63117 13.1354 5.49528 14.8221 4.10984C13.549 3.11081 11.9529 2.51006 10.2227 2.51599C6.12381 2.53002 2.86354 5.90673 2.93267 10.0664C3.00179 14.226 6.37391 17.58 10.4728 17.566C12.203 17.56 13.7789 16.9484 15.0187 15.9408C13.2865 14.588 12.1385 12.4388 12.0985 10.035Z" fill="#EB001B"/>
<path d="M27.0664 9.93364C27.1355 14.0933 23.8752 17.47 19.7764 17.484C18.0462 17.49 16.4501 16.8892 15.177 15.8902C16.8842 14.5047 17.9405 12.3689 17.9005 9.96503C17.8606 7.56122 16.7129 5.43295 14.9804 4.05922C16.2201 3.05159 17.7961 2.43997 19.5262 2.43405C23.6251 2.42001 26.9976 5.7949 27.0664 9.93364Z" fill="#F79E1B"/>
</svg>
