<svg width="39" height="27" viewBox="0 0 39 27" fill="none" xmlns="http://www.w3.org/2000/svg">
<rect width="39" height="26.21" rx="2" fill="#333333"/>
<path fill-rule="evenodd" clip-rule="evenodd" d="M17.8168 4.39642C18.4112 4.06232 19.1349 4.05408 19.7368 4.37456L27.0561 8.27197C27.637 8.58132 28 9.18584 28 9.84402C28 10.8277 27.2026 11.625 26.219 11.625H26V19L27 19C27.5523 19 28 19.4477 28 20C28 20.5523 27.5523 21 27 21H11C10.4477 21 10 20.5523 10 20C10 19.4477 10.4477 19 11 19H12L12 11.625H11.7886C10.8008 11.625 10 10.8243 10 9.83644C10 9.19005 10.3488 8.59396 10.9122 8.27724L17.8168 4.39642ZM14 11.625L14 19H16L16 11.625H14ZM18 11.625L18 19H20V11.625H18ZM22 11.625V19L24 19V11.625H22Z" fill="white"/>
</svg>
