<svg width="30" height="30" viewBox="0 0 30 30" fill="none" xmlns="http://www.w3.org/2000/svg">
<rect x="1" y="1" width="28" height="28" rx="3" fill="#F2F2F2"/>
<path fill-rule="evenodd" clip-rule="evenodd" d="M6 22C5.44772 22 5 22.4477 5 23C5 23.5523 5.44772 24 6 24H24C24.5523 24 25 23.5523 25 23C25 22.4477 24.5523 22 24 22H22V13H23C23.4461 13 23.8383 12.7045 23.9612 12.2757C24.0842 11.8469 23.9083 11.3884 23.53 11.152L15.53 6.152C15.2057 5.94933 14.7943 5.94933 14.47 6.152L6.47 11.152C6.0917 11.3884 5.91577 11.8469 6.03875 12.2757C6.16174 12.7045 6.55389 13 7 13H8V22H6ZM10 22V13H12V22H10ZM14 22V13H16V22H14ZM18 22V13H20V22H18Z" fill="#333333"/>
</svg>
