<svg width="30" height="30" viewBox="0 0 30 30" fill="none" xmlns="http://www.w3.org/2000/svg">
<rect y="5" width="30" height="20" rx="3" fill="#222357"/>
<path d="M15.1992 13.5456C15.1856 14.6139 16.1512 15.2101 16.8787 15.5646C17.626 15.9283 17.8771 16.1615 17.8742 16.4867C17.8685 16.9845 17.278 17.2041 16.7253 17.2127C15.7611 17.2276 15.2006 16.9524 14.7549 16.7441L14.4076 18.3694C14.8547 18.5755 15.6827 18.7552 16.5413 18.7631C18.5567 18.7631 19.8753 17.7682 19.8825 16.2257C19.8903 14.268 17.1746 14.1596 17.1932 13.2846C17.1996 13.0193 17.4527 12.7362 18.0076 12.6642C18.2821 12.6278 19.0402 12.6 19.8996 12.9958L20.2369 11.4233C19.7748 11.255 19.1807 11.0938 18.4412 11.0938C16.5442 11.0938 15.2099 12.1022 15.1992 13.5456ZM23.4782 11.2293C23.1102 11.2293 22.8 11.444 22.6616 11.7734L19.7826 18.6475H21.7966L22.1974 17.54H24.6585L24.891 18.6475H26.666L25.117 11.2293H23.4782ZM23.7599 13.2333L24.3411 16.0188H22.7493L23.7599 13.2333ZM12.7573 11.2293L11.1698 18.6475H13.0889L14.6757 11.2293H12.7573ZM9.91826 11.2293L7.92071 16.2784L7.11271 11.9852C7.01786 11.506 6.64345 11.2293 6.22768 11.2293H2.96215L2.9165 11.4447C3.58687 11.5901 4.34852 11.8248 4.80993 12.0758C5.09234 12.2291 5.17293 12.3632 5.26564 12.7276L6.79607 18.6475H8.82428L11.9336 11.2293H9.91826Z" fill="white"/>
</svg>
