<svg width="30" height="20" viewBox="0 0 30 20" fill="none" xmlns="http://www.w3.org/2000/svg">
<rect width="30" height="20" rx="3" fill="#222357"/>
<path d="M15.1992 8.54557C15.1856 9.61388 16.1512 10.2101 16.8787 10.5645C17.626 10.9282 17.8771 11.1614 17.8742 11.4866C17.8685 11.9844 17.278 12.2041 16.7253 12.2126C15.7611 12.2276 15.2006 11.9523 14.7549 11.7441L14.4076 13.3694C14.8547 13.5755 15.6827 13.7552 16.5413 13.763C18.5567 13.763 19.8753 12.7682 19.8825 11.2256C19.8903 9.268 17.1746 9.1596 17.1932 8.28456C17.1996 8.01927 17.4527 7.73614 18.0076 7.66412C18.2821 7.62774 19.0402 7.59993 19.8996 7.99573L20.2369 6.42323C19.7748 6.25492 19.1807 6.09375 18.4412 6.09375C16.5442 6.09375 15.2099 7.10215 15.1992 8.54557ZM23.4782 6.22925C23.1102 6.22925 22.8 6.44391 22.6616 6.77339L19.7826 13.6475H21.7966L22.1974 12.54H24.6585L24.891 13.6475H26.666L25.117 6.22925H23.4782ZM23.7599 8.23321L24.3411 11.0188H22.7493L23.7599 8.23321ZM12.7573 6.22925L11.1698 13.6475H13.0889L14.6757 6.22925H12.7573ZM9.91826 6.22925L7.92071 11.2784L7.11271 6.98519C7.01786 6.50595 6.64345 6.22925 6.22768 6.22925H2.96215L2.9165 6.44462C3.58687 6.5901 4.34852 6.82473 4.80993 7.07576C5.09234 7.22909 5.17293 7.36316 5.26564 7.72759L6.79607 13.6475H8.82428L11.9336 6.22925H9.91826Z" fill="white"/>
</svg>
